<svg width="749" height="367" viewBox="0 0 749 367" fill="none" xmlns="http://www.w3.org/2000/svg">
<g filter="url(#filter0_d_1003_9943)">
<mask id="path-1-inside-1_1003_9943" fill="white">
<path fill-rule="evenodd" clip-rule="evenodd" d="M162.623 83.3399L123.75 112.023L137.232 80.0842C102.552 74.2251 79.4668 63.783 79.4668 51.8773C79.4668 33.5422 134.216 18.6787 201.752 18.6787C269.288 18.6787 324.037 33.5422 324.037 51.8773C324.037 70.2123 269.288 85.0758 201.752 85.0758C188.068 85.0758 174.909 84.4656 162.623 83.3399Z"/>
</mask>
<path fill-rule="evenodd" clip-rule="evenodd" d="M162.623 83.3399L123.75 112.023L137.232 80.0842C102.552 74.2251 79.4668 63.783 79.4668 51.8773C79.4668 33.5422 134.216 18.6787 201.752 18.6787C269.288 18.6787 324.037 33.5422 324.037 51.8773C324.037 70.2123 269.288 85.0758 201.752 85.0758C188.068 85.0758 174.909 84.4656 162.623 83.3399Z" fill="#A9C99C"/>
<path d="M123.75 112.023L126.125 115.242L114.396 123.896L120.065 110.468L123.75 112.023ZM162.623 83.3399L160.248 80.1213L161.473 79.2178L162.988 79.3566L162.623 83.3399ZM137.232 80.0842L137.899 76.1401L142.884 76.9823L140.918 81.6398L137.232 80.0842ZM121.375 108.805L160.248 80.1213L164.998 86.5586L126.125 115.242L121.375 108.805ZM140.918 81.6398L127.435 113.579L120.065 110.468L133.547 78.5286L140.918 81.6398ZM83.4668 51.8773C83.4668 53.4641 84.2182 55.3971 86.4641 57.6751C88.7239 59.9672 92.2436 62.3325 97.0695 64.6394C106.705 69.2454 120.74 73.2412 137.899 76.1401L136.566 84.0283C119.044 81.068 104.196 76.9133 93.6192 71.8571C88.3387 69.3329 83.9197 66.4891 80.7673 63.2917C77.601 60.0802 75.4668 56.2433 75.4668 51.8773H83.4668ZM201.752 22.6787C168.233 22.6787 138.031 26.3715 116.331 32.2626C105.453 35.216 96.9382 38.6619 91.2372 42.3211C85.3531 46.098 83.4668 49.4206 83.4668 51.8773H75.4668C75.4668 45.1664 80.4242 39.7555 86.9159 35.5887C93.5909 31.3042 102.985 27.5965 114.235 24.5421C136.794 18.4176 167.735 14.6787 201.752 14.6787V22.6787ZM320.037 51.8773C320.037 49.4206 318.151 46.098 312.267 42.3211C306.566 38.6619 298.051 35.216 287.173 32.2626C265.473 26.3715 235.271 22.6787 201.752 22.6787V14.6787C235.769 14.6787 266.71 18.4176 289.269 24.5421C300.519 27.5965 309.913 31.3042 316.588 35.5887C323.08 39.7555 328.037 45.1664 328.037 51.8773H320.037ZM201.752 81.0758C235.271 81.0758 265.473 77.383 287.173 71.4919C298.051 68.5386 306.566 65.0926 312.267 61.4334C318.151 57.6566 320.037 54.334 320.037 51.8773H328.037C328.037 58.5881 323.08 63.9991 316.588 68.1659C309.913 72.4503 300.519 76.1581 289.269 79.2125C266.71 85.3369 235.769 89.0758 201.752 89.0758V81.0758ZM162.988 79.3566C175.148 80.4708 188.185 81.0758 201.752 81.0758V89.0758C187.951 89.0758 174.669 88.4604 162.258 87.3232L162.988 79.3566Z" fill="#281C3B" mask="url(#path-1-inside-1_1003_9943)"/>
<path d="M134.36 61.6074L140.84 39.4974H149.96L156.44 61.6074H150.5L149.39 57.1974H141.41L140.3 61.6074H134.36ZM142.52 52.8774H148.28L145.94 43.7274H144.86L142.52 52.8774ZM158.1 67.2174V45.9474H163.71V47.7774L165.87 45.9174H171.51L174.84 49.2774V58.2774L171.51 61.6074H165.9L163.71 59.7774V67.2174H158.1ZM166.29 58.3974H168.66L169.38 57.6474V49.9374L168.66 49.1274H166.26L163.71 51.3774V56.1774L166.29 58.3974ZM180.719 61.6074L177.389 58.2774V49.2774L180.719 45.9474H190.499L193.829 49.2774V58.2774L190.499 61.6074H180.719ZM184.049 58.4874H187.169L188.219 57.4074V50.1174L187.169 49.0674H184.049L182.999 50.1174V57.4074L184.049 58.4874ZM196.992 61.6074V39.4974H202.602V61.6074H196.992ZM206.214 61.6074V39.4974H211.824V61.6074H206.214ZM218.315 61.6074L214.985 58.2774V49.2774L218.315 45.9474H228.095L231.425 49.2774V58.2774L228.095 61.6074H218.315ZM221.645 58.4874H224.765L225.815 57.4074V50.1174L224.765 49.0674H221.645L220.595 50.1174V57.4074L221.645 58.4874ZM241.221 61.6074V57.1674H244.251V43.9674H241.521V39.4974H249.861V57.1674H252.861V61.6074H241.221ZM255.247 61.6074V57.1674H258.277V43.9674H255.547V39.4974H263.887V57.1674H266.887V61.6074H255.247Z" fill="#281C3B"/>
</g>
<path d="M2 365V2H473L375.81 178.363L336.56 159.528L231.893 365H2Z" fill="#F4EEE8" stroke="#281C3B" stroke-width="4"/>
<path d="M747 2V365H253L344.343 185.212L385.355 202.335L493.475 2H747Z" fill="#F4EEE8" stroke="#281C3B" stroke-width="4"/>
<defs>
<filter id="filter0_d_1003_9943" x="75.4668" y="18.6797" width="252.57" height="101.344" filterUnits="userSpaceOnUse" color-interpolation-filters="sRGB">
<feFlood flood-opacity="0" result="BackgroundImageFix"/>
<feColorMatrix in="SourceAlpha" type="matrix" values="0 0 0 0 0 0 0 0 0 0 0 0 0 0 0 0 0 0 127 0" result="hardAlpha"/>
<feOffset dy="4"/>
<feGaussianBlur stdDeviation="2"/>
<feComposite in2="hardAlpha" operator="out"/>
<feColorMatrix type="matrix" values="0 0 0 0 0 0 0 0 0 0 0 0 0 0 0 0 0 0 0.25 0"/>
<feBlend mode="normal" in2="BackgroundImageFix" result="effect1_dropShadow_1003_9943"/>
<feBlend mode="normal" in="SourceGraphic" in2="effect1_dropShadow_1003_9943" result="shape"/>
</filter>
</defs>
</svg>
